<svg xmlns="http://www.w3.org/2000/svg" width="109" height="70" viewBox="0 0 109 70">
    <g fill="#2C91DE" fill-rule="evenodd">
        <path d="M54.496 20.272c-1.826 0-2.823 2.411-2.823 4.481 0 3.446 1.55 8.891 4.817 8.891 1.72 0 2.606-1.93 2.606-3.86 0-2.894-1.385-9.512-4.6-9.512"/>
        <path d="M65.163 48.12c-1.662 2.828-7.646 11.72-10.58 11.72-1.552 0-7.2-2.824-7.2-4.821 0-.69.774-1.45 1.217-1.726 2.604-1.725 5.485-6.687 5.485-9.445 0-.898-.498-1.311-1.165-1.311-.886 0-1.771.207-2.658.207-8.03 0-11.742-8.686-11.742-16.544 0-11.032 8.585-16.063 16.395-16.063 8.31 0 16.729 5.102 16.729 16.753 0 7.927-2.771 14.957-6.48 21.23m35.606-18.025c-5.665-5.668-13.72-7.488-20.918-5.463-1.218-12.67-11.89-22.578-24.876-22.578-11.992 0-22.014 8.451-24.433 19.724-7.901-2.525-16.904-.652-23.172 5.618-8.938 8.942-8.938 23.438 0 32.378 7.414 7.42 18.23 9.533 23.868 9.533 0 0 .87-.006 2.677-.006H75.02c8.51.055 17.71-.923 25.75-8.964 8.347-8.35 8.347-21.892 0-30.242"/>
    </g>
</svg>
